<?xml version="1.0" encoding="UTF-8" standalone="no"?>
<!DOCTYPE svg PUBLIC "-//W3C//DTD SVG 1.1//EN"
 "http://www.w3.org/Graphics/SVG/1.1/DTD/svg11.dtd">
<!-- Generated by graphviz version 5.0.0 (20220707.1540)
 -->
<!-- Title: dependencies Pages: 1 -->
<svg width="2407pt" height="247pt"
 viewBox="0.00 0.00 2407.00 246.80" xmlns="http://www.w3.org/2000/svg" xmlns:xlink="http://www.w3.org/1999/xlink">
<g id="graph0" class="graph" transform="scale(1 1) rotate(0) translate(4 242.8)">
<title>dependencies</title>
<polygon fill="white" stroke="transparent" points="-4,4 -4,-242.8 2403,-242.8 2403,4 -4,4"/>
<text text-anchor="middle" x="1199.5" y="-8.2" font-family="sans-serif" font-size="14.00">dependencies</text>
<g id="clust1" class="cluster">
<title>cluster_AppModule</title>
<polygon fill="none" stroke="black" stroke-dasharray="1,5" points="8,-32.8 8,-230.8 2391,-230.8 2391,-32.8 8,-32.8"/>
</g>
<g id="clust2" class="cluster">
<title>cluster_AppModule_declarations</title>
<polygon fill="none" stroke="black" points="168,-40.8 168,-92.8 2383,-92.8 2383,-40.8 168,-40.8"/>
</g>
<g id="clust18" class="cluster">
<title>cluster_AppModule_imports</title>
<polygon fill="none" stroke="black" points="16,-40.8 16,-92.8 160,-92.8 160,-40.8 16,-40.8"/>
</g>
<g id="clust20" class="cluster">
<title>cluster_AppModule_bootstrap</title>
<polygon fill="none" stroke="black" points="1109,-170.8 1109,-222.8 1233,-222.8 1233,-170.8 1109,-170.8"/>
</g>
<!-- AppComponent -->
<g id="node1" class="node">
<title>AppComponent</title>
<polygon fill="#ffffb3" stroke="black" points="2374.94,-84.8 2269.06,-84.8 2269.06,-48.8 2374.94,-48.8 2374.94,-84.8"/>
<text text-anchor="middle" x="2322" y="-62.6" font-family="Times,serif" font-size="14.00">AppComponent</text>
</g>
<!-- AppModule -->
<g id="node16" class="node">
<title>AppModule</title>
<polygon fill="#8dd3c7" stroke="black" points="1212.66,-149.8 1209.66,-153.8 1188.66,-153.8 1185.66,-149.8 1129.34,-149.8 1129.34,-113.8 1212.66,-113.8 1212.66,-149.8"/>
<text text-anchor="middle" x="1171" y="-127.6" font-family="Times,serif" font-size="14.00">AppModule</text>
</g>
<!-- AppComponent&#45;&gt;AppModule -->
<g id="edge1" class="edge">
<title>AppComponent&#45;&gt;AppModule</title>
<path fill="none" stroke="black" d="M2322,-85.12C2322,-108.46 2322,-145.8 2322,-145.8 2322,-145.8 1222.99,-145.8 1222.99,-145.8"/>
<polygon fill="black" stroke="black" points="1222.99,-142.3 1212.99,-145.8 1222.99,-149.3 1222.99,-142.3"/>
</g>
<!-- ChangeThemeComponent -->
<g id="node2" class="node">
<title>ChangeThemeComponent</title>
<polygon fill="#ffffb3" stroke="black" points="2251.47,-84.8 2088.53,-84.8 2088.53,-48.8 2251.47,-48.8 2251.47,-84.8"/>
<text text-anchor="middle" x="2170" y="-62.6" font-family="Times,serif" font-size="14.00">ChangeThemeComponent</text>
</g>
<!-- ChangeThemeComponent&#45;&gt;AppModule -->
<g id="edge2" class="edge">
<title>ChangeThemeComponent&#45;&gt;AppModule</title>
<path fill="none" stroke="black" d="M2170,-85.09C2170,-107.01 2170,-140.8 2170,-140.8 2170,-140.8 1222.97,-140.8 1222.97,-140.8"/>
<polygon fill="black" stroke="black" points="1222.97,-137.3 1212.97,-140.8 1222.97,-144.3 1222.97,-137.3"/>
</g>
<!-- CompletedComponent -->
<g id="node3" class="node">
<title>CompletedComponent</title>
<polygon fill="#ffffb3" stroke="black" points="2070.27,-84.8 1927.73,-84.8 1927.73,-48.8 2070.27,-48.8 2070.27,-84.8"/>
<text text-anchor="middle" x="1999" y="-62.6" font-family="Times,serif" font-size="14.00">CompletedComponent</text>
</g>
<!-- CompletedComponent&#45;&gt;AppModule -->
<g id="edge3" class="edge">
<title>CompletedComponent&#45;&gt;AppModule</title>
<path fill="none" stroke="black" d="M1999,-84.83C1999,-105.57 1999,-136.8 1999,-136.8 1999,-136.8 1222.91,-136.8 1222.91,-136.8"/>
<polygon fill="black" stroke="black" points="1222.91,-133.3 1212.91,-136.8 1222.91,-140.3 1222.91,-133.3"/>
</g>
<!-- DeleteComponent -->
<g id="node4" class="node">
<title>DeleteComponent</title>
<polygon fill="#ffffb3" stroke="black" points="1909.86,-84.8 1792.14,-84.8 1792.14,-48.8 1909.86,-48.8 1909.86,-84.8"/>
<text text-anchor="middle" x="1851" y="-62.6" font-family="Times,serif" font-size="14.00">DeleteComponent</text>
</g>
<!-- DeleteComponent&#45;&gt;AppModule -->
<g id="edge4" class="edge">
<title>DeleteComponent&#45;&gt;AppModule</title>
<path fill="none" stroke="black" d="M1851,-84.91C1851,-104.14 1851,-131.8 1851,-131.8 1851,-131.8 1222.77,-131.8 1222.77,-131.8"/>
<polygon fill="black" stroke="black" points="1222.77,-128.3 1212.77,-131.8 1222.77,-135.3 1222.77,-128.3"/>
</g>
<!-- DeleteTodoComponent -->
<g id="node5" class="node">
<title>DeleteTodoComponent</title>
<polygon fill="#ffffb3" stroke="black" points="1773.91,-84.8 1626.09,-84.8 1626.09,-48.8 1773.91,-48.8 1773.91,-84.8"/>
<text text-anchor="middle" x="1700" y="-62.6" font-family="Times,serif" font-size="14.00">DeleteTodoComponent</text>
</g>
<!-- DeleteTodoComponent&#45;&gt;AppModule -->
<g id="edge5" class="edge">
<title>DeleteTodoComponent&#45;&gt;AppModule</title>
<path fill="none" stroke="black" d="M1700,-85.1C1700,-103.07 1700,-127.8 1700,-127.8 1700,-127.8 1222.95,-127.8 1222.95,-127.8"/>
<polygon fill="black" stroke="black" points="1222.95,-124.3 1212.95,-127.8 1222.95,-131.3 1222.95,-124.3"/>
</g>
<!-- FavouriteComponent -->
<g id="node6" class="node">
<title>FavouriteComponent</title>
<polygon fill="#ffffb3" stroke="black" points="1608.49,-84.8 1473.51,-84.8 1473.51,-48.8 1608.49,-48.8 1608.49,-84.8"/>
<text text-anchor="middle" x="1541" y="-62.6" font-family="Times,serif" font-size="14.00">FavouriteComponent</text>
</g>
<!-- FavouriteComponent&#45;&gt;AppModule -->
<g id="edge6" class="edge">
<title>FavouriteComponent&#45;&gt;AppModule</title>
<path fill="none" stroke="black" d="M1541,-84.83C1541,-101.2 1541,-122.8 1541,-122.8 1541,-122.8 1222.72,-122.8 1222.72,-122.8"/>
<polygon fill="black" stroke="black" points="1222.72,-119.3 1212.72,-122.8 1222.72,-126.3 1222.72,-119.3"/>
</g>
<!-- HomeComponent -->
<g id="node7" class="node">
<title>HomeComponent</title>
<polygon fill="#ffffb3" stroke="black" points="1455.55,-84.8 1340.45,-84.8 1340.45,-48.8 1455.55,-48.8 1455.55,-84.8"/>
<text text-anchor="middle" x="1398" y="-62.6" font-family="Times,serif" font-size="14.00">HomeComponent</text>
</g>
<!-- HomeComponent&#45;&gt;AppModule -->
<g id="edge7" class="edge">
<title>HomeComponent&#45;&gt;AppModule</title>
<path fill="none" stroke="black" d="M1398,-84.99C1398,-99.98 1398,-118.8 1398,-118.8 1398,-118.8 1222.9,-118.8 1222.9,-118.8"/>
<polygon fill="black" stroke="black" points="1222.9,-115.3 1212.9,-118.8 1222.9,-122.3 1222.9,-115.3"/>
</g>
<!-- HomeTodosComponent -->
<g id="node8" class="node">
<title>HomeTodosComponent</title>
<polygon fill="#ffffb3" stroke="black" points="1322.05,-84.8 1171.95,-84.8 1171.95,-48.8 1322.05,-48.8 1322.05,-84.8"/>
<text text-anchor="middle" x="1247" y="-62.6" font-family="Times,serif" font-size="14.00">HomeTodosComponent</text>
</g>
<!-- HomeTodosComponent&#45;&gt;AppModule -->
<g id="edge8" class="edge">
<title>HomeTodosComponent&#45;&gt;AppModule</title>
<path fill="none" stroke="black" d="M1192.28,-84.91C1192.28,-84.91 1192.28,-103.79 1192.28,-103.79"/>
<polygon fill="black" stroke="black" points="1188.78,-103.79 1192.28,-113.79 1195.78,-103.79 1188.78,-103.79"/>
</g>
<!-- LoginComponent -->
<g id="node9" class="node">
<title>LoginComponent</title>
<polygon fill="#ffffb3" stroke="black" points="1153.27,-84.8 1038.73,-84.8 1038.73,-48.8 1153.27,-48.8 1153.27,-84.8"/>
<text text-anchor="middle" x="1096" y="-62.6" font-family="Times,serif" font-size="14.00">LoginComponent</text>
</g>
<!-- LoginComponent&#45;&gt;AppModule -->
<g id="edge9" class="edge">
<title>LoginComponent&#45;&gt;AppModule</title>
<path fill="none" stroke="black" d="M1141.28,-84.91C1141.28,-84.91 1141.28,-103.79 1141.28,-103.79"/>
<polygon fill="black" stroke="black" points="1137.78,-103.79 1141.28,-113.79 1144.78,-103.79 1137.78,-103.79"/>
</g>
<!-- NavComponent -->
<g id="node10" class="node">
<title>NavComponent</title>
<polygon fill="#ffffb3" stroke="black" points="1020.16,-84.8 915.84,-84.8 915.84,-48.8 1020.16,-48.8 1020.16,-84.8"/>
<text text-anchor="middle" x="968" y="-62.6" font-family="Times,serif" font-size="14.00">NavComponent</text>
</g>
<!-- NavComponent&#45;&gt;AppModule -->
<g id="edge10" class="edge">
<title>NavComponent&#45;&gt;AppModule</title>
<path fill="none" stroke="black" d="M968,-84.99C968,-99.98 968,-118.8 968,-118.8 968,-118.8 1118.94,-118.8 1118.94,-118.8"/>
<polygon fill="black" stroke="black" points="1118.94,-122.3 1128.94,-118.8 1118.94,-115.3 1118.94,-122.3"/>
</g>
<!-- NotFoundComponent -->
<g id="node11" class="node">
<title>NotFoundComponent</title>
<polygon fill="#ffffb3" stroke="black" points="898.12,-84.8 759.88,-84.8 759.88,-48.8 898.12,-48.8 898.12,-84.8"/>
<text text-anchor="middle" x="829" y="-62.6" font-family="Times,serif" font-size="14.00">NotFoundComponent</text>
</g>
<!-- NotFoundComponent&#45;&gt;AppModule -->
<g id="edge11" class="edge">
<title>NotFoundComponent&#45;&gt;AppModule</title>
<path fill="none" stroke="black" d="M829,-84.83C829,-101.2 829,-122.8 829,-122.8 829,-122.8 1119.06,-122.8 1119.06,-122.8"/>
<polygon fill="black" stroke="black" points="1119.06,-126.3 1129.06,-122.8 1119.06,-119.3 1119.06,-126.3"/>
</g>
<!-- ProductComponent -->
<g id="node12" class="node">
<title>ProductComponent</title>
<polygon fill="#ffffb3" stroke="black" points="741.38,-84.8 616.62,-84.8 616.62,-48.8 741.38,-48.8 741.38,-84.8"/>
<text text-anchor="middle" x="679" y="-62.6" font-family="Times,serif" font-size="14.00">ProductComponent</text>
</g>
<!-- ProductComponent&#45;&gt;AppModule -->
<g id="edge12" class="edge">
<title>ProductComponent&#45;&gt;AppModule</title>
<path fill="none" stroke="black" d="M679,-85.1C679,-103.07 679,-127.8 679,-127.8 679,-127.8 1119.05,-127.8 1119.05,-127.8"/>
<polygon fill="black" stroke="black" points="1119.05,-131.3 1129.05,-127.8 1119.05,-124.3 1119.05,-131.3"/>
</g>
<!-- SignUpComponent -->
<g id="node13" class="node">
<title>SignUpComponent</title>
<polygon fill="#ffffb3" stroke="black" points="598.12,-84.8 473.88,-84.8 473.88,-48.8 598.12,-48.8 598.12,-84.8"/>
<text text-anchor="middle" x="536" y="-62.6" font-family="Times,serif" font-size="14.00">SignUpComponent</text>
</g>
<!-- SignUpComponent&#45;&gt;AppModule -->
<g id="edge13" class="edge">
<title>SignUpComponent&#45;&gt;AppModule</title>
<path fill="none" stroke="black" d="M536,-84.91C536,-104.14 536,-131.8 536,-131.8 536,-131.8 1119.34,-131.8 1119.34,-131.8"/>
<polygon fill="black" stroke="black" points="1119.34,-135.3 1129.34,-131.8 1119.34,-128.3 1119.34,-135.3"/>
</g>
<!-- TodoComponent -->
<g id="node14" class="node">
<title>TodoComponent</title>
<polygon fill="#ffffb3" stroke="black" points="455.38,-84.8 344.62,-84.8 344.62,-48.8 455.38,-48.8 455.38,-84.8"/>
<text text-anchor="middle" x="400" y="-62.6" font-family="Times,serif" font-size="14.00">TodoComponent</text>
</g>
<!-- TodoComponent&#45;&gt;AppModule -->
<g id="edge14" class="edge">
<title>TodoComponent&#45;&gt;AppModule</title>
<path fill="none" stroke="black" d="M400,-84.83C400,-105.57 400,-136.8 400,-136.8 400,-136.8 1119.27,-136.8 1119.27,-136.8"/>
<polygon fill="black" stroke="black" points="1119.27,-140.3 1129.27,-136.8 1119.27,-133.3 1119.27,-140.3"/>
</g>
<!-- TodoDetailsComponent -->
<g id="node15" class="node">
<title>TodoDetailsComponent</title>
<polygon fill="#ffffb3" stroke="black" points="326.04,-84.8 175.96,-84.8 175.96,-48.8 326.04,-48.8 326.04,-84.8"/>
<text text-anchor="middle" x="251" y="-62.6" font-family="Times,serif" font-size="14.00">TodoDetailsComponent</text>
</g>
<!-- TodoDetailsComponent&#45;&gt;AppModule -->
<g id="edge15" class="edge">
<title>TodoDetailsComponent&#45;&gt;AppModule</title>
<path fill="none" stroke="black" d="M251,-85.09C251,-107.01 251,-140.8 251,-140.8 251,-140.8 1119.08,-140.8 1119.08,-140.8"/>
<polygon fill="black" stroke="black" points="1119.08,-144.3 1129.08,-140.8 1119.08,-137.3 1119.08,-144.3"/>
</g>
<!-- AppComponent  -->
<g id="node18" class="node">
<title>AppComponent </title>
<polygon fill="#80b1d3" stroke="black" points="1225.44,-214.8 1116.56,-214.8 1116.56,-178.8 1225.44,-178.8 1225.44,-214.8"/>
<text text-anchor="middle" x="1171" y="-192.6" font-family="Times,serif" font-size="14.00">AppComponent </text>
</g>
<!-- AppModule&#45;&gt;AppComponent  -->
<g id="edge17" class="edge">
<title>AppModule&#45;&gt;AppComponent </title>
<path fill="none" stroke="black" stroke-dasharray="1,5" d="M1171,-149.91C1171,-149.91 1171,-168.79 1171,-168.79"/>
<polygon fill="black" stroke="black" points="1167.5,-168.79 1171,-178.79 1174.5,-168.79 1167.5,-168.79"/>
</g>
<!-- AppRoutingModule -->
<g id="node17" class="node">
<title>AppRoutingModule</title>
<polygon fill="#8dd3c7" stroke="black" points="152.28,-84.8 149.28,-88.8 128.28,-88.8 125.28,-84.8 23.72,-84.8 23.72,-48.8 152.28,-48.8 152.28,-84.8"/>
<text text-anchor="middle" x="88" y="-62.6" font-family="Times,serif" font-size="14.00">AppRoutingModule</text>
</g>
<!-- AppRoutingModule&#45;&gt;AppModule -->
<g id="edge16" class="edge">
<title>AppRoutingModule&#45;&gt;AppModule</title>
<path fill="none" stroke="black" d="M88,-85.12C88,-108.46 88,-145.8 88,-145.8 88,-145.8 1119.21,-145.8 1119.21,-145.8"/>
<polygon fill="black" stroke="black" points="1119.21,-149.3 1129.21,-145.8 1119.21,-142.3 1119.21,-149.3"/>
</g>
</g>
</svg>
